<svg width="41" height="41" viewBox="0 0 41 41" fill="none" xmlns="http://www.w3.org/2000/svg">
<path d="M16.4 30.7341C19.8961 30.7341 23.0744 29.4946 25.5535 27.3969L36.6775 38.5209C36.9318 38.7752 37.2496 38.9023 37.5993 38.9023C37.9489 38.9023 38.2667 38.7752 38.521 38.5209C39.0295 38.0124 39.0295 37.186 38.521 36.6775L27.3969 25.5535C29.4628 23.0744 30.7341 19.8643 30.7341 16.4C30.7341 8.48604 24.314 2.06589 16.4 2.06589C8.51786 2.06589 2.06592 8.51783 2.06592 16.4C2.06592 24.3139 8.51786 30.7341 16.4 30.7341ZM16.4 4.67209C22.8837 4.67209 28.1279 9.94806 28.1279 16.4C28.1279 22.8837 22.8837 28.1279 16.4 28.1279C9.9163 28.1279 4.67212 22.8519 4.67212 16.4C4.67212 9.94806 9.94809 4.67209 16.4 4.67209Z" fill="#666666"/>
</svg>
